<svg xmlns="http://www.w3.org/2000/svg" viewBox="0 0 64 64">
  <defs>
    <linearGradient id="bg" x1="0" y1="0" x2="1" y2="1">
      <stop offset="0%" stop-color="#7c3aed" />
      <stop offset="100%" stop-color="#ec4899" />
    </linearGradient>
  </defs>
  <rect width="64" height="64" rx="14" fill="url(#bg)" />
  <path
    d="M44.5 18.5c2 2 2 5.2 0 7.1l-5.6 5.6 6.7 6.7c1.7 1.7 1.7 4.5 0 6.2-1.7 1.7-4.5 1.7-6.2 0l-6.7-6.7-6.1 6.1c-2 2-5.2 2-7.1 0-2-2-2-5.2 0-7.1l6.1-6.1-7-7c-1.7-1.7-1.7-4.5 0-6.2 1.7-1.7 4.5-1.7 6.2 0l7 7 5.6-5.6c2-2 5.2-2 7.1 0z"
    fill="#ffffff"
    fill-opacity="0.95"
  />
</svg>
